# xmcd
#
# Track frame offsets:
#	150
#	13112
#	23726
#	38994
#	51272
#	64712
#	77604
#	86885
#	99515
#	110852
#	124562
#	134926
#
# Disc length: 1953 seconds
#
# Revision: 0
# Processed by: cddbd v1.5.1PL0 Copyright (c) Steve Scherf et al.
# Submitted via: dBpowerAMP V4.0
#
DISCID=a6079f0c
DTITLE=Margie LeBlanc - Remembering Patsy Cline
DYEAR=2003
DGENRE=Country
TTITLE0=Someday
TTITLE1=Strange
TTITLE2=Why Can't He Be You
TTITLE3=He Called Me Baby
TTITLE4=You Took Him Off My Hands
TTITLE5=You're Stronger Than Me
TTITLE6=Blue Moon Of Kentucky
TTITLE7=Crazy
TTITLE8=San Antonio Rose
TTITLE9=She's Got You
TTITLE10=Just Out Of Reach
TTITLE11=Just A Closer Walk With Thee
EXTD=
EXTT0=
EXTT1=
EXTT2=
EXTT3=
EXTT4=
EXTT5=
EXTT6=
EXTT7=
EXTT8=
EXTT9=
EXTT10=
EXTT11=
PLAYORDER=
